<?xml version="1.0" encoding="UTF-8"?>
<svg version="1.1" xmlns="http://www.w3.org/2000/svg" width="155" height="193">
<path d="M0 0 C51.15 0 102.3 0 155 0 C155 63.69 155 127.38 155 193 C103.85 193 52.7 193 0 193 C0 129.31 0 65.62 0 0 Z M55 3 C54.67 18.51 54.34 34.02 54 50 C58.66652075 51.91853426 58.66652075 51.91853426 63.23950195 52.22705078 C64.03995438 52.22689972 64.8404068 52.22674866 65.66511536 52.22659302 C66.93883247 52.21110916 66.93883247 52.21110916 68.23828125 52.1953125 C69.11904831 52.1924826 69.99981537 52.18965271 70.90727234 52.18673706 C73.70915545 52.17557833 76.51071416 52.15048171 79.3125 52.125 C81.21679225 52.11496463 83.12108952 52.10583975 85.02539062 52.09765625 C89.68371797 52.07565309 94.34180406 52.04115294 99 52 C100.14254117 49.71491766 100.12668135 48.44351773 100.12939453 45.9050293 C100.13412277 44.63812508 100.13412277 44.63812508 100.13894653 43.34562683 C100.1369223 42.43106216 100.13489807 41.5164975 100.1328125 40.57421875 C100.13376923 39.63447708 100.13472595 38.69473541 100.13571167 37.72651672 C100.13639306 35.73507623 100.13454164 33.74363351 100.13037109 31.75219727 C100.12504013 28.71039802 100.13030822 25.66874765 100.13671875 22.62695312 C100.13605761 20.69270801 100.13477571 18.75846298 100.1328125 16.82421875 C100.13483673 15.91572678 100.13686096 15.0072348 100.13894653 14.07121277 C100.12362373 9.91958964 100.05521559 6.04743814 99 2 C93.05517888 1.97532797 87.1103874 1.95715337 81.16552734 1.94506836 C79.14208457 1.94003169 77.11864544 1.93320211 75.09521484 1.92456055 C72.19107157 1.91246588 69.28697631 1.90676512 66.3828125 1.90234375 C65.02024826 1.89460182 65.02024826 1.89460182 63.63015747 1.88670349 C62.36907669 1.88659019 62.36907669 1.88659019 61.08251953 1.88647461 C60.34083527 1.884254 59.599151 1.88203339 58.83499146 1.87974548 C56.90225085 1.88730527 56.90225085 1.88730527 55 3 Z M55 103 C55 120.82 55 138.64 55 157 C69.85 157 84.7 157 100 157 C100.02291678 149.63098356 100.04284176 142.26209005 100.05493164 134.89306641 C100.05997003 132.38459861 100.06680084 129.87613376 100.07543945 127.36767578 C100.08752661 123.7685473 100.09323315 120.16945753 100.09765625 116.5703125 C100.10281754 115.44319855 100.10797882 114.31608459 100.11329651 113.15481567 C100.11337204 112.11388763 100.11344757 111.07295959 100.11352539 110.00048828 C100.115746 109.08115509 100.11796661 108.1618219 100.12025452 107.21463013 C100.14510529 104.95849412 100.14510529 104.95849412 99 103 C84.48 103 69.96 103 55 103 Z " fill="#18191B" transform="translate(0,0)"/>
<path d="M0 0 C51.15 0 102.3 0 155 0 C155 17.82 155 35.64 155 54 C154.01 53.34 153.02 52.68 152 52 C150.42699672 53.57300328 150.87274496 55.13684045 150.87060547 57.3203125 C150.86587723 58.69678955 150.86587723 58.69678955 150.86105347 60.10107422 C150.8630777 61.09896973 150.86510193 62.09686523 150.8671875 63.125 C150.86623077 64.14223145 150.86527405 65.15946289 150.86428833 66.20751953 C150.86360639 68.36295636 150.86546165 70.51839522 150.86962891 72.67382812 C150.87497695 75.98572371 150.86968437 79.29748367 150.86328125 82.609375 C150.86394203 84.69791697 150.86522319 86.78645885 150.8671875 88.875 C150.86415115 90.37184326 150.86415115 90.37184326 150.86105347 91.89892578 C150.86420563 92.81657715 150.86735779 93.73422852 150.87060547 94.6796875 C150.87140106 95.49163574 150.87219666 96.30358398 150.87301636 97.14013672 C150.79635811 99.01545753 150.79635811 99.01545753 152 100 C152 84.49 152 68.98 152 53 C152.33 53 152.66 53 153 53 C153.0252689 59.81761894 153.04283244 66.63522589 153.05493164 73.45288086 C153.05997333 75.77417451 153.06680651 78.09546497 153.07543945 80.41674805 C153.08751225 83.74528795 153.09322979 87.07378602 153.09765625 90.40234375 C153.10281754 91.44712387 153.10797882 92.49190399 153.11329651 93.56834412 C153.11337204 94.52926468 153.11344757 95.49018524 153.11352539 96.48022461 C153.115746 97.33071884 153.11796661 98.18121307 153.12025452 99.05747986 C153 101 153 101 152 102 C150.51189667 102.09829972 149.01917786 102.12798445 147.52783203 102.12939453 C146.57659454 102.13254669 145.62535706 102.13569885 144.64529419 102.13894653 C143.60992523 102.1369223 142.57455627 102.13489807 141.5078125 102.1328125 C140.45093231 102.13376923 139.39405212 102.13472595 138.30514526 102.13571167 C136.0639439 102.13639376 133.82274057 102.13453748 131.58154297 102.13037109 C128.14676471 102.12503382 124.71211785 102.13030967 121.27734375 102.13671875 C119.10416638 102.13605777 116.93098909 102.13477618 114.7578125 102.1328125 C113.726492 102.13483673 112.69517151 102.13686096 111.63259888 102.13894653 C110.19628616 102.13421829 110.19628616 102.13421829 108.73095703 102.12939453 C107.88792023 102.12859894 107.04488342 102.12780334 106.17630005 102.12698364 C104 102 104 102 101 101 C99.44944722 100.9405165 97.89621254 100.94084206 96.3449707 100.97827148 C94.91417175 101.00890686 94.91417175 101.00890686 93.45446777 101.04016113 C92.45500122 101.0668689 91.45553467 101.09357666 90.42578125 101.12109375 C89.50486694 101.14175903 88.58395264 101.16242432 87.63513184 101.18371582 C84.19411652 101.2624961 80.75331874 101.35055698 77.3125 101.4375 C69.619375 101.623125 61.92625 101.80875 54 102 C54 120.48 54 138.96 54 158 C69.18 158 84.36 158 100 158 C99.67 145.46 99.34 132.92 99 120 C99.99 120 100.98 120 102 120 C102 132.87 102 145.74 102 159 C85.17 159 68.34 159 51 159 C51 158.34 51 157.68 51 157 C51.66 157 52.32 157 53 157 C52.67 138.85 52.34 120.7 52 102 C36.62229697 102.03958897 36.62229697 102.03958897 21.24462891 102.09008789 C19.32194067 102.09300751 17.39925181 102.09555596 15.4765625 102.09765625 C14.47197998 102.10277222 13.46739746 102.10788818 12.43237305 102.11315918 C11.00139282 102.11334045 11.00139282 102.11334045 9.54150391 102.11352539 C8.71099518 102.115746 7.88048645 102.11796661 7.02481079 102.12025452 C5 102 5 102 3 101 C3 85.16 3 69.32 3 53 C3.33 53 3.66 53 4 53 C4 68.51 4 84.02 4 100 C5.21480284 99.00588545 5.21480284 99.00588545 5.12025452 97.05747986 C5.11803391 96.20698563 5.11581329 95.35649139 5.11352539 94.48022461 C5.11344986 93.51930405 5.11337433 92.55838348 5.11329651 91.56834412 C5.10813522 90.523564 5.10297394 89.47878387 5.09765625 88.40234375 C5.0962413 87.33834854 5.09482635 86.27435333 5.09336853 85.17811584 C5.08775064 81.76454917 5.07519511 78.351047 5.0625 74.9375 C5.05748731 72.62955824 5.052924 70.32161545 5.04882812 68.01367188 C5.0377754 62.34242574 5.02101987 56.67121747 5 51 C5.62196259 51.00222061 6.24392517 51.00444122 6.88473511 51.00672913 C13.34063138 51.02880126 19.79651699 51.0439147 26.25244141 51.05493164 C28.66390417 51.05996974 31.07536386 51.06680034 33.48681641 51.07543945 C36.94694779 51.08752787 40.4070389 51.09323344 43.8671875 51.09765625 C44.95055389 51.10281754 46.03392029 51.10797882 47.15011597 51.11329651 C48.1510025 51.11337204 49.15188904 51.11344757 50.18310547 51.11352539 C51.06690887 51.115746 51.95071228 51.11796661 52.86129761 51.12025452 C55.05276775 51.13873944 55.05276775 51.13873944 57 50 C57.99 50.495 57.99 50.495 59 51 C61.89355578 51.09917127 64.76253299 51.13981511 67.65625 51.1328125 C68.51432251 51.13376923 69.37239502 51.13472595 70.25646973 51.13571167 C72.07218499 51.13639272 73.88790268 51.13454367 75.70361328 51.13037109 C78.48866221 51.12502178 81.27354986 51.13031861 84.05859375 51.13671875 C85.82031286 51.13605796 87.58203186 51.13477676 89.34375 51.1328125 C90.59847107 51.13584885 90.59847107 51.13584885 91.87854004 51.13894653 C96.07280044 51.23616131 96.07280044 51.23616131 100 50 C99.83628906 48.75476562 99.67257813 47.50953125 99.50390625 46.2265625 C98.64509016 37.63840163 98.89517303 28.99532609 98.9375 20.375 C98.9425245 18.589845 98.94708572 16.80468864 98.95117188 15.01953125 C98.96210349 10.6796533 98.9793159 6.33984198 99 2 C98.43927292 2.07064667 97.87854584 2.14129333 97.30082703 2.21408081 C92.28960779 2.81333103 87.38620411 3.12827117 82.33203125 3.1328125 C81.30706795 3.13424759 81.30706795 3.13424759 80.26139832 3.13571167 C78.83385118 3.13638522 77.40630083 3.13458931 75.97875977 3.13037109 C73.80673324 3.1249857 71.63491109 3.13035708 69.46289062 3.13671875 C68.06510372 3.13605831 66.66731693 3.13477785 65.26953125 3.1328125 C64.01760986 3.13168457 62.76568848 3.13055664 61.47583008 3.12939453 C58 3 58 3 55.29321289 2.51147461 C50.2263387 1.72452959 45.15975152 1.76093844 40.0390625 1.68359375 C38.89335785 1.66281265 37.7476532 1.64203156 36.56723022 1.62062073 C32.91987914 1.55541782 29.27245816 1.49637648 25.625 1.4375 C23.14712829 1.39428695 20.66926356 1.35067178 18.19140625 1.30664062 C12.1276773 1.19976648 6.06387937 1.09794651 0 1 C0 0.67 0 0.34 0 0 Z " fill="#171718" transform="translate(0,0)"/>
<path d="M0 0 C12.7153125 -0.0309375 12.7153125 -0.0309375 25.6875 -0.0625 C28.35674561 -0.071604 31.02599121 -0.08070801 33.77612305 -0.09008789 C35.8963211 -0.09300903 38.01651972 -0.09555713 40.13671875 -0.09765625 C41.23391235 -0.10277222 42.33110596 -0.10788818 43.46154785 -0.11315918 C44.51668579 -0.11328003 45.57182373 -0.11340088 46.65893555 -0.11352539 C47.5716069 -0.115746 48.48427826 -0.11796661 49.42460632 -0.12025452 C52.04132687 0.0019297 54.44899974 0.41953212 57 1 C56.34 1.33 55.68 1.66 55 2 C55 17.84 55 33.68 55 50 C49.42158203 50.07347656 49.42158203 50.07347656 43.73046875 50.1484375 C40.13627021 50.20241737 36.54213943 50.25973669 32.94799805 50.31738281 C30.44642159 50.35571119 27.94478928 50.39055718 25.44311523 50.421875 C21.85119643 50.46744146 18.25966338 50.52545024 14.66796875 50.5859375 C13.54601608 50.59748871 12.42406342 50.60903992 11.26811218 50.62094116 C9.70683342 50.6507457 9.70683342 50.6507457 8.11401367 50.68115234 C7.19690109 50.69447601 6.27978851 50.70779968 5.33488464 50.7215271 C2.72938861 50.85377574 2.72938861 50.85377574 0 53 C0 35.51 0 18.02 0 0 Z " fill="#181819" transform="translate(0,1)"/>
<path d="M0 0 C15.84 0 31.68 0 48 0 C48 15.18 48 30.36 48 46 C32.16 46 16.32 46 0 46 C0 30.82 0 15.64 0 0 Z " fill="#0B7CC4" transform="translate(103,53)"/>
<path d="M0 0 C15.84 0 31.68 0 48 0 C48 15.18 48 30.36 48 46 C32.16 46 16.32 46 0 46 C0 30.82 0 15.64 0 0 Z " fill="#0B7BC3" transform="translate(5,53)"/>
<path d="M0 0 C0.99 0.33 1.98 0.66 3 1 C5.92614705 1.09736066 8.82780438 1.13993745 11.75390625 1.1328125 C12.61056381 1.13376923 13.46722137 1.13472595 14.34983826 1.13571167 C16.15957716 1.13639186 17.96931852 1.13454876 19.77905273 1.13037109 C22.55523122 1.12501403 25.33124839 1.13032487 28.10742188 1.13671875 C29.86458369 1.13605807 31.62174541 1.13477711 33.37890625 1.1328125 C34.62892174 1.13584885 34.62892174 1.13584885 35.90419006 1.13894653 C40.08538613 1.23444001 40.08538613 1.23444001 44 0 C44 16.5 44 33 44 50 C29.15 50 14.3 50 -1 50 C-1.18844487 43.20070538 -1.37076555 36.40183838 -1.53710938 29.60205078 C-1.59561503 27.28750201 -1.65777861 24.97304275 -1.72363281 22.65869141 C-1.8175015 19.33773088 -1.89833765 16.01667367 -1.9765625 12.6953125 C-2.00875885 11.65569366 -2.0409552 10.61607483 -2.0741272 9.54495239 C-2.09429901 8.58410736 -2.11447083 7.62326233 -2.13525391 6.63330078 C-2.15746002 5.78502716 -2.17966614 4.93675354 -2.20254517 4.06277466 C-2 2 -2 2 0 0 Z " fill="#0D80C7" transform="translate(56,50)"/>
<path d="M0 0 C0.66 0 1.32 0 2 0 C2.33 15.51 2.66 31.02 3 47 C27.255 47.495 27.255 47.495 52 48 C52 48.33 52 48.66 52 49 C35.83 49 19.66 49 3 49 C3 64.84 3 80.68 3 97 C19.17 97 35.34 97 52 97 C52 81.49 52 65.98 52 50 C52.33 50 52.66 50 53 50 C53.0252689 56.81761894 53.04283244 63.63522589 53.05493164 70.45288086 C53.05997333 72.77417451 53.06680651 75.09546497 53.07543945 77.41674805 C53.08751225 80.74528795 53.09322979 84.07378602 53.09765625 87.40234375 C53.10281754 88.44712387 53.10797882 89.49190399 53.11329651 90.56834412 C53.11337204 91.52926468 53.11344757 92.49018524 53.11352539 93.48022461 C53.115746 94.33071884 53.11796661 95.18121307 53.12025452 96.05747986 C53 98 53 98 52 99 C50.51189667 99.09829972 49.01917786 99.12798445 47.52783203 99.12939453 C46.57659454 99.13254669 45.62535706 99.13569885 44.64529419 99.13894653 C43.60992523 99.1369223 42.57455627 99.13489807 41.5078125 99.1328125 C40.45093231 99.13376923 39.39405212 99.13472595 38.30514526 99.13571167 C36.0639439 99.13639376 33.82274057 99.13453748 31.58154297 99.13037109 C28.14676471 99.12503382 24.71211785 99.13030967 21.27734375 99.13671875 C19.10416638 99.13605777 16.93098909 99.13477618 14.7578125 99.1328125 C13.726492 99.13483673 12.69517151 99.13686096 11.63259888 99.13894653 C10.19628616 99.13421829 10.19628616 99.13421829 8.73095703 99.12939453 C7.88792023 99.12859894 7.04488342 99.12780334 6.17630005 99.12698364 C4 99 4 99 1 98 C-0.55055278 97.9405165 -2.10378746 97.94084206 -3.6550293 97.97827148 C-5.08582825 98.00890686 -5.08582825 98.00890686 -6.54553223 98.04016113 C-7.54499878 98.0668689 -8.54446533 98.09357666 -9.57421875 98.12109375 C-10.49513306 98.14175903 -11.41604736 98.16242432 -12.36486816 98.18371582 C-15.80588348 98.2624961 -19.24668126 98.35055698 -22.6875 98.4375 C-30.380625 98.623125 -38.07375 98.80875 -46 99 C-46 117.48 -46 135.96 -46 155 C-30.82 155 -15.64 155 0 155 C-0.33 142.46 -0.66 129.92 -1 117 C-0.01 117 0.98 117 2 117 C2 129.87 2 142.74 2 156 C-14.83 156 -31.66 156 -49 156 C-49 155.34 -49 154.68 -49 154 C-48.34 154 -47.68 154 -47 154 C-47.33 135.85 -47.66 117.7 -48 99 C-63.37770303 99.03958897 -63.37770303 99.03958897 -78.75537109 99.09008789 C-80.67805933 99.09300751 -82.60074819 99.09555596 -84.5234375 99.09765625 C-85.52802002 99.10277222 -86.53260254 99.10788818 -87.56762695 99.11315918 C-88.52161377 99.11328003 -89.47560059 99.11340088 -90.45849609 99.11352539 C-91.28900482 99.115746 -92.11951355 99.11796661 -92.97518921 99.12025452 C-95 99 -95 99 -97 98 C-97 82.16 -97 66.32 -97 50 C-96.67 50 -96.34 50 -96 50 C-96 65.51 -96 81.02 -96 97 C-79.83 97 -63.66 97 -47 97 C-47 81.49 -47 65.98 -47 50 C-62.84 49.67 -78.68 49.34 -95 49 C-95 48.67 -95 48.34 -95 48 C-78.83 48 -62.66 48 -46 48 C-45.19554378 51.21782488 -44.8774251 53.36333713 -44.88647461 56.58496094 C-44.88659546 57.49810059 -44.88671631 58.41124023 -44.88684082 59.35205078 C-44.89195679 60.30321777 -44.89707275 61.25438477 -44.90234375 62.234375 C-44.90335083 63.11496582 -44.90435791 63.99555664 -44.90539551 64.90283203 C-44.91061867 68.18523464 -44.92457994 71.46761866 -44.9375 74.75 C-44.958125 82.0925 -44.97875 89.435 -45 97 C-30.15 97 -15.3 97 0 97 C-0.08378906 93.09800781 -0.16757813 89.19601563 -0.25390625 85.17578125 C-0.36164081 79.88811089 -0.46369872 74.60034369 -0.5625 69.3125 C-0.5815999 68.29105644 -0.5815999 68.29105644 -0.60108566 67.24897766 C-1.01540784 44.80753051 -0.98790656 22.42839111 0 0 Z " fill="#0F080A" transform="translate(100,3)"/>
<path d="M0 0 C9.9 0 19.8 0 30 0 C30 0.33 30 0.66 30 1 C26.37 1 22.74 1 19 1 C19 1.66 19 2.32 19 3 C19.99 3 20.98 3 22 3 C22 3.66 22 4.32 22 5 C22.78375 5.0825 23.5675 5.165 24.375 5.25 C27 6 27 6 28.3125 8.0625 C28.539375 8.701875 28.76625 9.34125 29 10 C28.319375 9.505 27.63875 9.01 26.9375 8.5 C23.31292985 6.64915567 21.02491472 6.56091839 17 7 C14.46041766 7.88329643 14.46041766 7.88329643 13 10 C12.69638589 13.33975518 12.65686291 15.99918349 13.75 19.1875 C13.87375 20.0846875 13.87375 20.0846875 14 21 C13.360625 21.61875 12.72125 22.2375 12.0625 22.875 C9.72809901 24.87689821 9.72809901 24.87689821 9.5 28 C9.81359359 31.02274659 9.81359359 31.02274659 11.4375 33.375 C15.22843798 35.77900945 18.62478276 35.54690216 23 35 C24.11375 34.62875 25.2275 34.2575 26.375 33.875 C27.24125 33.58625 28.1075 33.2975 29 33 C29.99 33.66 30.98 34.32 32 35 C33.65549531 35.38499891 35.3222433 35.72793135 37 36 C37 35.01 37 34.02 37 33 C38.65 33.33 40.3 33.66 42 34 C42 37.3 42 40.6 42 44 C28.14 44 14.28 44 0 44 C0 29.48 0 14.96 0 0 Z " fill="#0B79BF" transform="translate(56,54)"/>
<path d="M0 0 C2.4375 1.0625 2.4375 1.0625 4 3 C4.64215333 7.33453498 4.48564529 9.28670848 2 12.9375 C1.34 13.618125 0.68 14.29875 0 15 C1.65 16.32 3.3 17.64 5 19 C5.4125 18.175 5.825 17.35 6.25 16.5 C7.11625 15.2625 7.11625 15.2625 8 14 C9.32 14 10.64 14 12 14 C11.690625 14.9075 11.38125 15.815 11.0625 16.75 C10.5365625 18.35875 10.5365625 18.35875 10 20 C9.71125 20.70125 9.4225 21.4025 9.125 22.125 C9.08375 22.74375 9.0425 23.3625 9 24 C10.89586384 26.14589423 10.89586384 26.14589423 13 28 C13 28.66 13 29.32 13 30 C6.25 29.125 6.25 29.125 4 28 C2.9790625 28.4640625 2.9790625 28.4640625 1.9375 28.9375 C-2.10785584 30.40071381 -5.74928039 30.74560543 -10 30 C-13.0625 27.875 -13.0625 27.875 -15 25 C-15.58122986 21.43996708 -15.43296709 19.74785225 -13.625 16.625 C-13.08875 16.08875 -12.5525 15.5525 -12 15 C-11.34 15 -10.68 15 -10 15 C-10.33 14.484375 -10.66 13.96875 -11 13.4375 C-12.38885542 10.05216491 -12.45310904 7.62487235 -12 4 C-8.44645381 -0.19964549 -5.34596363 -0.68039537 0 0 Z " fill="#EEF6FA" transform="translate(80,60)"/>
<path d="M0 0 C0 2.64 0 5.28 0 8 C-3.1964086 9.06546953 -5.65747276 9.07427838 -9 9 C-8.98952637 9.74685059 -8.97905273 10.49370117 -8.96826172 11.26318359 C-8.9267923 14.63375508 -8.90070271 18.004273 -8.875 21.375 C-8.84986328 23.1384375 -8.84986328 23.1384375 -8.82421875 24.9375 C-8.81777344 26.05898437 -8.81132813 27.18046875 -8.8046875 28.3359375 C-8.79421387 29.37282715 -8.78374023 30.4097168 -8.77294922 31.47802734 C-9 34 -9 34 -11 36 C-11 35.34 -11 34.68 -11 34 C-12.98 34 -14.96 34 -17 34 C-17 25.42 -17 16.84 -17 8 C-19.97 8 -22.94 8 -26 8 C-26 5.69 -26 3.38 -26 1 C-21.85417952 0.83301248 -17.70834155 0.66646352 -13.5625 0.5 C-12.37849609 0.45230469 -11.19449219 0.40460938 -9.97460938 0.35546875 C-8.84990234 0.31035156 -7.72519531 0.26523438 -6.56640625 0.21875 C-5.00321655 0.1559082 -5.00321655 0.1559082 -3.40844727 0.09179688 C-1 0 -1 0 0 0 Z " fill="#176395" transform="translate(92,111)"/>
<path d="M0 0 C6.6 0 13.2 0 20 0 C20 1.65 20 3.3 20 5 C15.38 5 10.76 5 6 5 C6 7.31 6 9.62 6 12 C9.63 12 13.26 12 17 12 C17 13.65 17 15.3 17 17 C13.37 17 9.74 17 6 17 C6 19.31 6 21.62 6 24 C10.95 24 15.9 24 21 24 C21 25.65 21 27.3 21 29 C14.07 29 7.14 29 0 29 C0 19.43 0 9.86 0 0 Z " fill="#EEF8FB" transform="translate(20,61)"/>
<path d="M0 0 C2 2 2 2 2 6 C3.423125 5.9690625 3.423125 5.9690625 4.875 5.9375 C8 6 8 6 10 7 C11.33602205 6.67761207 12.66891752 6.34221092 14 6 C15.74886981 5.93375493 17.50002748 5.91447405 19.25 5.9375 C20.14203125 5.94652344 21.0340625 5.95554688 21.953125 5.96484375 C22.62859375 5.97644531 23.3040625 5.98804688 24 6 C24 6.66 24 7.32 24 8 C17.565 8.495 17.565 8.495 11 9 C11 9.99 11 10.98 11 12 C14.465 11.505 14.465 11.505 18 11 C18 11.99 18 12.98 18 14 C15.69 14.33 13.38 14.66 11 15 C10.95745644 16.99954746 10.95919217 19.00041636 11 21 C11.33 21.33 11.66 21.66 12 22 C13.11375 22 14.2275 22 15.375 22 C19 22 19 22 22 23 C22 19.04 22 15.08 22 11 C22.99 11 23.98 11 25 11 C25 14.63 25 18.26 25 22 C24.34 22 23.68 22 23 22 C23 22.66 23 23.32 23 24 C17.06 24 11.12 24 5 24 C5.99 23.67 6.98 23.34 8 23 C7.505 16.565 7.505 16.565 7 10 C2.52297636 8.93462795 2.52297636 8.93462795 0 9 C0 6.69 0 4.38 0 2 C-1.32 2 -2.64 2 -4 2 C-4 8.93 -4 15.86 -4 23 C-2.68 23 -1.36 23 0 23 C0 19.37 0 15.74 0 12 C1.32 11.67 2.64 11.34 4 11 C4 14.96 4 18.92 4 23 C1.35541621 24.32229189 -0.67761301 24.09677194 -3.625 24.0625 C-4.62789062 24.05347656 -5.63078125 24.04445312 -6.6640625 24.03515625 C-7.43492188 24.02355469 -8.20578125 24.01195312 -9 24 C-8.01 23.67 -7.02 23.34 -6 23 C-6.11429397 21.22844346 -6.24183037 19.45773771 -6.375 17.6875 C-6.44460937 16.70136719 -6.51421875 15.71523437 -6.5859375 14.69921875 C-6.83865472 11.78471567 -6.83865472 11.78471567 -9 9 C-12.58357241 8.74984127 -12.58357241 8.74984127 -16 9 C-16.33 9.99 -16.66 10.98 -17 12 C-15.02 11.67 -13.04 11.34 -11 11 C-10.67 11.99 -10.34 12.98 -10 14 C-12.31 14.66 -14.62 15.32 -17 16 C-17.33 17.98 -17.66 19.96 -18 22 C-18.99 21.67 -19.98 21.34 -21 21 C-20.85915204 19.20793453 -20.71216299 17.41635083 -20.5625 15.625 C-20.48128906 14.62726563 -20.40007812 13.62953125 -20.31640625 12.6015625 C-20 10 -20 10 -19 8 C-20.32 7.67 -21.64 7.34 -23 7 C-20.89722877 6.77802415 -18.79267698 6.57286363 -16.6875 6.375 C-15.51574219 6.25898438 -14.34398438 6.14296875 -13.13671875 6.0234375 C-10 6 -10 6 -7 8 C-6.34 5.69 -5.68 3.38 -5 1 C-2.625 0.375 -2.625 0.375 0 0 Z " fill="#060606" transform="translate(113,161)"/>
<path d="M0 0 C0.89960449 0.01458252 1.79920898 0.02916504 2.72607422 0.04418945 C3.70447266 0.05256836 4.68287109 0.06094727 5.69091797 0.06958008 C7.22039063 0.11308594 7.22039063 0.11308594 8.78076172 0.1574707 C9.80814453 0.16713867 10.83552734 0.17680664 11.89404297 0.18676758 C19.48792134 0.30213033 19.48792134 0.30213033 20.65576172 1.4699707 C20.69640004 3.13614185 20.69848272 4.80385165 20.65576172 6.4699707 C18.34576172 6.1399707 16.03576172 5.8099707 13.65576172 5.4699707 C13.65576172 10.7499707 13.65576172 16.0299707 13.65576172 21.4699707 C12.66576172 21.4699707 11.67576172 21.4699707 10.65576172 21.4699707 C10.65576172 16.1899707 10.65576172 10.9099707 10.65576172 5.4699707 C8.67576172 5.4699707 6.69576172 5.4699707 4.65576172 5.4699707 C4.66736328 6.60176758 4.67896484 7.73356445 4.69091797 8.8996582 C4.70029625 10.38142739 4.70939641 11.86319836 4.71826172 13.3449707 C4.72664063 14.09133789 4.73501953 14.83770508 4.74365234 15.60668945 C4.76904297 21.2434082 4.76904297 21.2434082 3.65576172 23.4699707 C-0.63423828 23.4699707 -4.92423828 23.4699707 -9.34423828 23.4699707 C-8.02423828 23.1399707 -6.70423828 22.8099707 -5.34423828 22.4699707 C-5.39644531 20.59051758 -5.39644531 20.59051758 -5.44970703 18.6730957 C-5.47784956 17.02206746 -5.50514922 15.3710247 -5.53173828 13.7199707 C-5.56944336 12.4824707 -5.56944336 12.4824707 -5.60791016 11.2199707 C-5.61757812 10.42075195 -5.62724609 9.6215332 -5.63720703 8.7980957 C-5.65291748 8.06494141 -5.66862793 7.33178711 -5.68481445 6.57641602 C-5.09010388 2.89816307 -3.73686866 0.74916394 0 0 Z " fill="#030404" transform="translate(15.34423828125,161.530029296875)"/>
<path d="M0 0 C0.845625 0.495 1.69125 0.99 2.5625 1.5 C2.5625 3.15 2.5625 4.8 2.5625 6.5 C1.7375 6.149375 0.9125 5.79875 0.0625 5.4375 C-4.41184188 4.23901557 -6.92049883 4.46331121 -11.4375 5.5 C-13.88359595 7.33457196 -14.31278543 8.64120599 -14.74609375 11.625 C-14.94752772 15.33626824 -14.83718398 17.78751986 -13 21.0625 C-8.13932213 23.78922173 -2.6574422 22.95921112 2.5625 21.5 C2.75 23.875 2.75 23.875 2.5625 26.5 C-0.97174712 28.85616475 -2.62394102 28.7981228 -6.8125 28.8125 C-8.49472656 28.83763672 -8.49472656 28.83763672 -10.2109375 28.86328125 C-13.76092651 28.46358515 -15.59224198 27.61751885 -18.4375 25.5 C-22.20799971 20.29931074 -22.12704883 14.67760188 -21.4375 8.5 C-19.73856982 4.29738325 -17.1239981 2.08054867 -13.4375 -0.5 C-8.53107516 -2.13547495 -4.75572976 -2.07522753 0 0 Z " fill="#F1F8FB" transform="translate(137.4375,61.5)"/>
<path d="M0 0 C0.02465392 4.53897705 0.04283789 9.07791543 0.05493164 13.61694336 C0.0599714 15.16219766 0.0668032 16.70744716 0.07543945 18.25268555 C0.08752076 20.46925029 0.09323173 22.68575218 0.09765625 24.90234375 C0.10281754 25.5971434 0.10797882 26.29194305 0.11329651 27.00779724 C0.11349277 28.6722933 0.06189129 30.33665499 0 32 C-0.495 32.495 -0.495 32.495 -1 33 C-3.31 33 -5.62 33 -8 33 C-8 22.44 -8 11.88 -8 1 C-5.29120665 -0.35439668 -2.99066732 -0.06501451 0 0 Z " fill="#0A78CA" transform="translate(83,11)"/>
<path d="M0 0 C0.33 0.66 0.66 1.32 1 2 C3.32156597 2.40729228 5.6568787 2.74438677 8 3 C8.33 4.65 8.66 6.3 9 8 C9.33 6.35 9.66 4.7 10 3 C11.32 3.33 12.64 3.66 14 4 C13.01 4 12.02 4 11 4 C11 7.63 11 11.26 11 15 C9.68 15 8.36 15 7 15 C7 11.37 7 7.74 7 4 C5.68 4 4.36 4 3 4 C3 8.29 3 12.58 3 17 C2.34 17 1.68 17 1 17 C1 14.03 1 11.06 1 8 C-1.31 8 -3.62 8 -6 8 C-6 8.99 -6 9.98 -6 11 C-5.34 11 -4.68 11 -4 11 C-4 12.65 -4 14.3 -4 16 C-6.875 15.6875 -6.875 15.6875 -10 15 C-12.32579101 11.51131349 -12.41865457 10.10281481 -12 6 C-11 3.625 -11 3.625 -9 2 C-6.24528656 1.66313169 -3.7936844 1.81680758 -1 2 C-0.67 1.34 -0.34 0.68 0 0 Z " fill="#121313" transform="translate(58,165)"/>
<path d="M0 0 C1.9375 1.5 1.9375 1.5 3 3 C0 4 0 4 -3.0625 3.875 C-4.031875 3.91625 -5.00125 3.9575 -6 4 C-8.31282587 7.46923881 -8.42478586 8.92205575 -8 13 C-6.44318272 15.25738505 -5.42368447 15.86684202 -2.8125 16.6875 C-2.214375 16.790625 -1.61625 16.89375 -1 17 C-1 15.35 -1 13.7 -1 12 C-1.66 12 -2.32 12 -3 12 C-3 11.01 -3 10.02 -3 9 C-1.02 9 0.96 9 3 9 C3 12.3 3 15.6 3 19 C-0.63782632 20.21260877 -3.17735999 20.39544552 -7 20 C-9.63016161 17.8272578 -11.47336894 16.05326212 -13 13 C-13.39447548 8.81855989 -13.45035186 6.69053952 -11.125 3.125 C-7.54842929 -0.45157071 -4.98744034 -0.34999581 0 0 Z " fill="#F0F0F0" transform="translate(55,164)"/>
<path d="M0 0 C1.32 0.33 2.64 0.66 4 1 C4.33 2.65 4.66 4.3 5 6 C7.10232344 3.1315587 7.10232344 3.1315587 8 0 C9.32 0.33 10.64 0.66 12 1 C12.33 2.65 12.66 4.3 13 6 C15.10232344 3.1315587 15.10232344 3.1315587 16 0 C16.99 0 17.98 0 19 0 C18.68917128 1.75029762 18.37626821 3.50022694 18.0625 5.25 C17.80146484 6.71179688 17.80146484 6.71179688 17.53515625 8.203125 C17.09620271 10.49721795 16.59651408 12.74291971 16 15 C13.625 14.8125 13.625 14.8125 11 14 C9.6875 11.4375 9.6875 11.4375 9 9 C8.34 10.65 7.68 12.3 7 14 C5.68 14 4.36 14 3 14 C2.49528803 12.23050388 1.99639315 10.45934777 1.5 8.6875 C1.2215625 7.70136719 0.943125 6.71523437 0.65625 5.69921875 C0 3 0 3 0 0 Z " fill="#E5E6E6" transform="translate(75,169)"/>
<path d="M0 0 C1.32 0 2.64 0 4 0 C4 2.31 4 4.62 4 7 C4.94875 6.79375 5.8975 6.5875 6.875 6.375 C8.421875 6.189375 8.421875 6.189375 10 6 C12 8 12 8 12.1953125 11.0390625 C12.17210938 12.22242188 12.14890625 13.40578125 12.125 14.625 C12.10695313 15.81351563 12.08890625 17.00203125 12.0703125 18.2265625 C12.04710938 19.14179688 12.02390625 20.05703125 12 21 C10.68 20.67 9.36 20.34 8 20 C8 16.37 8 12.74 8 9 C7.01 9.33 6.02 9.66 5 10 C4.67 13.63 4.34 17.26 4 21 C2.68 21 1.36 21 0 21 C0 14.07 0 7.14 0 0 Z " fill="#E3E4E4" transform="translate(109,163)"/>
<path d="M0 0 C33.33 0 66.66 0 101 0 C94.94753691 3.02623155 89.21387422 3.12685416 82.52734375 3.1328125 C81.84120499 3.13376923 81.15506622 3.13472595 80.44813538 3.13571167 C79.00863553 3.13638739 77.56913253 3.13457588 76.12963867 3.13037109 C73.93987124 3.12500581 71.7503081 3.13034104 69.56054688 3.13671875 C68.15364539 3.13605802 66.74674402 3.13477697 65.33984375 3.1328125 C64.07519287 3.13168457 62.81054199 3.13055664 61.50756836 3.12939453 C58 3 58 3 55.28881836 2.51147461 C50.2236133 1.72373765 45.15820196 1.76091503 40.0390625 1.68359375 C38.89335785 1.66281265 37.7476532 1.64203156 36.56723022 1.62062073 C32.91987914 1.55541782 29.27245816 1.49637648 25.625 1.4375 C23.14712829 1.39428695 20.66926356 1.35067178 18.19140625 1.30664062 C12.1276773 1.19976648 6.06387937 1.09794651 0 1 C0 0.67 0 0.34 0 0 Z " fill="#0A090B" transform="translate(0,0)"/>
<path d="M0 0 C3.3125 -0.25 3.3125 -0.25 7 0 C9.32679705 2.24218625 9.95476985 3.56820286 10.29296875 6.796875 C10.25816406 7.77140625 10.22335938 8.7459375 10.1875 9.75 C10.16042969 10.73484375 10.13335937 11.7196875 10.10546875 12.734375 C10.07066406 13.48203125 10.03585938 14.2296875 10 15 C8.37536158 15.05395478 6.75021459 15.09277195 5.125 15.125 C4.22007813 15.14820313 3.31515625 15.17140625 2.3828125 15.1953125 C0 15 0 15 -2 13 C-2.3125 10.5 -2.3125 10.5 -2 8 C1.22791555 5.8480563 2.28400809 5.79913557 6 6 C5.67 5.34 5.34 4.68 5 4 C3.02 4 1.04 4 -1 4 C-0.67 2.68 -0.34 1.36 0 0 Z " fill="#E5E5E5" transform="translate(97,169)"/>
<path d="M0 0 C2.35119399 3.52679099 2.21443452 5.02879485 2.125 9.1875 C2.10695312 10.27417969 2.08890625 11.36085937 2.0703125 12.48046875 C2.03550781 13.72763672 2.03550781 13.72763672 2 15 C0.37536158 15.05395478 -1.24978541 15.09277195 -2.875 15.125 C-3.77992188 15.14820313 -4.68484375 15.17140625 -5.6171875 15.1953125 C-8 15 -8 15 -10 13 C-9.625 9.875 -9.625 9.875 -9 7 C-5.535 6.505 -5.535 6.505 -2 6 C-2 5.01 -2 4.02 -2 3 C-4.31 3.33 -6.62 3.66 -9 4 C-9 3.01 -9 2.02 -9 1 C-5.95699684 -0.52150158 -3.345915 -0.23899393 0 0 Z " fill="#D0CFD0" transform="translate(133,169)"/>
<path d="M0 0 C1.32 0 2.64 0 4 0 C4.33 3.63 4.66 7.26 5 11 C5.66 11 6.32 11 7 11 C7.33 7.37 7.66 3.74 8 0 C9.32 0 10.64 0 12 0 C12 4.95 12 9.9 12 15 C10.576875 15.061875 9.15375 15.12375 7.6875 15.1875 C6.48673828 15.23970703 6.48673828 15.23970703 5.26171875 15.29296875 C3 15 3 15 1.21875 13.875 C-0.54851611 11.15612907 -0.29091256 9.01828928 -0.1875 5.8125 C-0.16042969 4.72582031 -0.13335937 3.63914063 -0.10546875 2.51953125 C-0.07066406 1.68808594 -0.03585938 0.85664063 0 0 Z " fill="#E8E8E8" transform="translate(61,169)"/>
<path d="M0 0 C1.32 0.33 2.64 0.66 4 1 C3.01 1.33 2.02 1.66 1 2 C1 2.99 1 3.98 1 5 C1.99 5 2.98 5 4 5 C4.66 4.01 5.32 3.02 6 2 C7.41209747 6.01499356 6.92105682 10.02420091 6.625 14.1875 C6.58117187 14.92419922 6.53734375 15.66089844 6.4921875 16.41992188 C6.13127309 21.86872691 6.13127309 21.86872691 5 23 C3.00041636 23.04080783 0.99954746 23.04254356 -1 23 C-1 22.67 -1 22.34 -1 22 C0.65 22 2.3 22 4 22 C4 17.05 4 12.1 4 7 C2.68 7 1.36 7 0 7 C0 11.62 0 16.24 0 21 C-0.33 20.34 -0.66 19.68 -1 19 C-2.32 19 -3.64 19 -5 19 C-5 16.03 -5 13.06 -5 10 C-4.01 10 -3.02 10 -2 10 C-2 9.01 -2 8.02 -2 7 C-2.99 6.67 -3.98 6.34 -5 6 C-4.34 5.01 -3.68 4.02 -3 3 C-3 3.66 -3 4.32 -3 5 C-2.34 5 -1.68 5 -1 5 C-0.67 3.35 -0.34 1.7 0 0 Z M7 0 C7.33 0 7.66 0 8 0 C8 1.65 8 3.3 8 5 C7.67 5 7.34 5 7 5 C7 3.35 7 1.7 7 0 Z " fill="#090909" transform="translate(146,162)"/>
<path d="M0 0 C-0.01740234 0.95712891 -0.01740234 0.95712891 -0.03515625 1.93359375 C-0.04417969 2.75988281 -0.05320312 3.58617188 -0.0625 4.4375 C-0.07410156 5.26121094 -0.08570312 6.08492188 -0.09765625 6.93359375 C-0.23267348 8.99163938 -0.23267348 8.99163938 1 10 C2.68608966 10.07205511 4.37500659 10.08386068 6.0625 10.0625 C6.98160156 10.05347656 7.90070313 10.04445313 8.84765625 10.03515625 C9.55792969 10.02355469 10.26820312 10.01195313 11 10 C10.6875 11.9375 10.6875 11.9375 10 14 C5.93205168 15.35598277 2.24892816 15.65482606 -2 15 C-5.0625 12.875 -5.0625 12.875 -7 10 C-7.5704606 6.50592882 -7.39646846 4.75329006 -5.75 1.625 C-4 0 -4 0 0 0 Z " fill="#EEF7FA" transform="translate(72,75)"/>
<path d="M0 0 C0 1.65 0 3.3 0 5 C-7.92 5 -15.84 5 -24 5 C-24 3.35 -24 1.7 -24 0 C-15.96992764 -1.50563857 -8.08567124 -0.63782601 0 0 Z " fill="#0E82D1" transform="translate(91,113)"/>
<path d="M0 0 C0.33 0 0.66 0 1 0 C1.90482048 5.38195986 2.13304442 10.5446932 2.09765625 15.99609375 C2.0962413 16.82963882 2.09482635 17.6631839 2.09336853 18.52198792 C2.08781168 21.16052986 2.0752674 23.79898409 2.0625 26.4375 C2.05747942 28.23632689 2.05291749 30.03515513 2.04882812 31.83398438 C2.03785643 36.22268958 2.02062196 40.61132996 2 45 C0.515 45.495 0.515 45.495 -1 46 C-1.02493791 41.05615597 -1.04297138 36.11234952 -1.05493164 31.16845703 C-1.05992396 29.49071616 -1.06672015 27.81297955 -1.07543945 26.13525391 C-1.11988714 17.35552877 -1.12835446 8.72475655 0 0 Z " fill="#171E23" transform="translate(53,4)"/>
<path d="M0 0 C0.02465392 4.53897705 0.04283789 9.07791543 0.05493164 13.61694336 C0.0599714 15.16219766 0.0668032 16.70744716 0.07543945 18.25268555 C0.08752076 20.46925029 0.09323173 22.68575218 0.09765625 24.90234375 C0.10281754 25.5971434 0.10797882 26.29194305 0.11329651 27.00779724 C0.11349277 28.6722933 0.06189129 30.33665499 0 32 C-0.495 32.495 -0.495 32.495 -1 33 C-3.31 33 -5.62 33 -8 33 C-8 22.44 -8 11.88 -8 1 C-5.29120665 -0.35439668 -2.99066732 -0.06501451 0 0 Z M-7 2 C-7 11.57 -7 21.14 -7 31 C-5.35 31 -3.7 31 -2 31 C-2 21.43 -2 11.86 -2 2 C-3.65 2 -5.3 2 -7 2 Z " fill="#125482" transform="translate(83,11)"/>
<path d="M0 0 C0.66 0 1.32 0 2 0 C2.19448477 2.12437212 2.38038289 4.24953191 2.5625 6.375 C2.66691406 7.55835937 2.77132812 8.74171875 2.87890625 9.9609375 C3 13 3 13 2 15 C2.66 15 3.32 15 4 15 C4 10.05 4 5.1 4 0 C4.33 0 4.66 0 5 0 C5.06058594 1.22976562 5.12117188 2.45953125 5.18359375 3.7265625 C5.26805005 5.35938427 5.35269547 6.99219627 5.4375 8.625 C5.47681641 9.43324219 5.51613281 10.24148437 5.55664062 11.07421875 C5.74405347 14.62064644 6.00272121 18.01604266 6.59765625 21.5234375 C6.79681641 22.74933594 6.79681641 22.74933594 7 24 C6.67 24.33 6.34 24.66 6 25 C4.02 25 2.04 25 0 25 C0 16.75 0 8.5 0 0 Z " fill="#0D88D7" transform="translate(76,119)"/>
<path d="M0 0 C4.95 0 9.9 0 15 0 C15 0.99 15 1.98 15 3 C13.02 3 11.04 3 9 3 C9 8.28 9 13.56 9 19 C8.01 19 7.02 19 6 19 C6 13.72 6 8.44 6 3 C4.02 3 2.04 3 0 3 C0 2.01 0 1.02 0 0 Z " fill="#F7F7F8" transform="translate(20,164)"/>
<path d="M0 0 C1.98 0 3.96 0 6 0 C6.33 1.65 6.66 3.3 7 5 C7.33 3.35 7.66 1.7 8 0 C9.32 0.33 10.64 0.66 12 1 C11.01 1 10.02 1 9 1 C9 4.63 9 8.26 9 12 C7.68 12 6.36 12 5 12 C5 8.37 5 4.74 5 1 C3.68 1 2.36 1 1 1 C1 5.29 1 9.58 1 14 C0.34 14 -0.32 14 -1 14 C-1 11.03 -1 8.06 -1 5 C-3.31 5 -5.62 5 -8 5 C-7.67 6.65 -7.34 8.3 -7 10 C-7.99 9.67 -8.98 9.34 -10 9 C-10 7.35 -10 5.7 -10 4 C-5.545 3.505 -5.545 3.505 -1 3 C-0.67 2.01 -0.34 1.02 0 0 Z " fill="#040304" transform="translate(60,168)"/>
<path d="M0 0 C1.32 0 2.64 0 4 0 C4 6.6 4 13.2 4 20 C2.68 20 1.36 20 0 20 C0 13.4 0 6.8 0 0 Z " fill="#F1F1F2" transform="translate(14,164)"/>
<path d="M0 0 C0.99 0 1.98 0 3 0 C3 0.99 3 1.98 3 3 C3.99 3 4.98 3 6 3 C6 3.99 6 4.98 6 6 C5.01 6 4.02 6 3 6 C3 8.97 3 11.94 3 15 C4.32 15 5.64 15 7 15 C6.67 15.99 6.34 16.98 6 18 C4.02 17.67 2.04 17.34 0 17 C0 13.37 0 9.74 0 6 C-0.66 6 -1.32 6 -2 6 C-2 5.34 -2 4.68 -2 4 C-1.34 4 -0.68 4 0 4 C0 2.68 0 1.36 0 0 Z " fill="#F1F1F0" transform="translate(138,166)"/>
<path d="M0 0 C1.32 0 2.64 0 4 0 C4 6.27 4 12.54 4 19 C2.68 19 1.36 19 0 19 C0 12.73 0 6.46 0 0 Z " fill="#F2F2F3" transform="translate(6,164)"/>
<path d="M0 0 C5.26053037 -0.31563182 8.44573816 0.33409063 13 3 C13 4.65 13 6.3 13 8 C12.13375 7.67 11.2675 7.34 10.375 7 C7.04281725 6.01268659 4.44840462 5.83579026 1 6 C1 5.34 1 4.68 1 4 C0.34 3.67 -0.32 3.34 -1 3 C-0.67 2.01 -0.34 1.02 0 0 Z " fill="#E7F5F9" transform="translate(127,60)"/>
<path d="M0 0 C4.22818271 0.30201305 6.32196752 2.95001856 9 6 C9 6.66 9 7.32 9 8 C2.9453125 8.9765625 2.9453125 8.9765625 1 9 C-1 7 -1 7 -1.1875 3.9375 C-1 1 -1 1 0 0 Z " fill="#0A63B2" transform="translate(72,77)"/>
<path d="M0 0 C1.32 0 2.64 0 4 0 C4 4.95 4 9.9 4 15 C2.68 14.67 1.36 14.34 0 14 C0 9.38 0 4.76 0 0 Z " fill="#D5D6D7" transform="translate(146,169)"/>
<path d="M0 0 C6.0546875 -0.1953125 6.0546875 -0.1953125 8 0 C10 2 10 2 10.4375 5.375 C10 9 10 9 7.5 11.4375 C6.2625 12.2109375 6.2625 12.2109375 5 13 C5 10 5 7 5 4 C3.02 3.34 1.04 2.68 -1 2 C-0.67 1.34 -0.34 0.68 0 0 Z " fill="#F4F9FB" transform="translate(74,61)"/>
<path d="M0 0 C0.99 0.33 1.98 0.66 3 1 C5.92614705 1.09736066 8.82780438 1.13993745 11.75390625 1.1328125 C12.61056381 1.13376923 13.46722137 1.13472595 14.34983826 1.13571167 C16.15957716 1.13639186 17.96931852 1.13454876 19.77905273 1.13037109 C22.55523122 1.12501403 25.33124839 1.13032487 28.10742188 1.13671875 C29.86458369 1.13605807 31.62174541 1.13477711 33.37890625 1.1328125 C34.62892174 1.13584885 34.62892174 1.13584885 35.90419006 1.13894653 C40.08538613 1.23444001 40.08538613 1.23444001 44 0 C44 0.99 44 1.98 44 3 C29.15 3 14.3 3 -1 3 C-1.33 3.66 -1.66 4.32 -2 5 C-1.125 1.125 -1.125 1.125 0 0 Z " fill="#0A4E87" transform="translate(56,50)"/>
<path d="M0 0 C0 0.66 0 1.32 0 2 C0.99 2 1.98 2 3 2 C2.67 4.31 2.34 6.62 2 9 C-0.375 9.125 -0.375 9.125 -3 9 C-3.66 8.34 -4.32 7.68 -5 7 C-4.75 3.9375 -4.75 3.9375 -4 1 C-2 0 -2 0 0 0 Z " fill="#A8A8A9" transform="translate(128,175)"/>
<path d="M0 0 C2.6875 0.875 2.6875 0.875 5 2 C4.835 2.598125 4.67 3.19625 4.5 3.8125 C3.8885876 6.11344336 3.8885876 6.11344336 4 9 C1.625 9.125 1.625 9.125 -1 9 C-3 7 -3 7 -3.3125 4.5 C-3.209375 3.675 -3.10625 2.85 -3 2 C-2.01 1.34 -1.02 0.68 0 0 Z " fill="#A4A4A4" transform="translate(98,175)"/>
<path d="M0 0 C0.66 0 1.32 0 2 0 C2.19448477 2.12437212 2.38038289 4.24953191 2.5625 6.375 C2.66691406 7.55835937 2.77132812 8.74171875 2.87890625 9.9609375 C3 13 3 13 2 15 C2.66 15 3.32 15 4 15 C4 17.97 4 20.94 4 24 C3.01 24 2.02 24 1 24 C0.67 16.08 0.34 8.16 0 0 Z " fill="#0E7AC3" transform="translate(76,119)"/>
<path d="M0 0 C7.26 0 14.52 0 22 0 C22 0.66 22 1.32 22 2 C19.64628886 2.1968999 17.2925305 2.38270974 14.9375 2.5625 C12.97103516 2.71912109 12.97103516 2.71912109 10.96484375 2.87890625 C7.07674103 2.99765619 3.80889777 2.66866216 0 2 C0 1.34 0 0.68 0 0 Z " fill="#0D7AC3" transform="translate(68,115)"/>
<path d="M0 0 C0.99 0 1.98 0 3 0 C3 3.96 3 7.92 3 12 C2.01 12.33 1.02 12.66 0 13 C-1.25069801 10.49860398 -1.13302467 8.72607309 -1.125 5.9375 C-1.12757812 5.03902344 -1.13015625 4.14054688 -1.1328125 3.21484375 C-1 1 -1 1 0 0 Z " fill="#0A0B0B" transform="translate(114,172)"/>
<path d="M0 0 C1.98 0.495 1.98 0.495 4 1 C4.33 3.31 4.66 5.62 5 8 C4.01 8.66 3.02 9.32 2 10 C1.67 9.67 1.34 9.34 1 9 C0.34 10.32 -0.32 11.64 -1 13 C-1.02708567 11.39592672 -1.04643483 9.7917215 -1.0625 8.1875 C-1.07410156 7.29417969 -1.08570312 6.40085938 -1.09765625 5.48046875 C-1 3 -1 3 0 0 Z " fill="#E8E8E8" transform="translate(83,169)"/>
<path d="M0 0 C1.2065625 0.0309375 1.2065625 0.0309375 2.4375 0.0625 C2.5625 2.9375 2.5625 2.9375 2.4375 6.0625 C1.7775 6.7225 1.1175 7.3825 0.4375 8.0625 C-0.5525 8.0625 -1.5425 8.0625 -2.5625 8.0625 C-2.94313221 5.7364143 -3.27519945 3.40194736 -3.5625 1.0625 C-2.5625 0.0625 -2.5625 0.0625 0 0 Z " fill="#1371B9" transform="translate(76.5625,63.9375)"/>
<path d="M0 0 C0 3.3 0 6.6 0 10 C-2.97 9.505 -2.97 9.505 -6 9 C-5.34 8.67 -4.68 8.34 -4 8 C-3.34444881 5.47266765 -3.34444881 5.47266765 -3 3 C-3.99 3 -4.98 3 -6 3 C-6 2.34 -6 1.68 -6 1 C-3.92446352 0.4465236 -2.15634036 0 0 0 Z " fill="#EDEDED" transform="translate(134,174)"/>
<path d="M0 0 C0.99 0 1.98 0 3 0 C3 4.29 3 8.58 3 13 C2.01 12.67 1.02 12.34 0 12 C0 8.04 0 4.08 0 0 Z " fill="#EBEBEC" transform="translate(61,169)"/>
<path d="M0 0 C0.66 0 1.32 0 2 0 C2.33 1.98 2.66 3.96 3 6 C3.99 5.67 4.98 5.34 6 5 C6 6.65 6 8.3 6 10 C3.03 9.505 3.03 9.505 0 9 C-1.10844919 5.67465243 -0.84454356 3.37817425 0 0 Z " fill="#191A1B" transform="translate(48,171)"/>
<path d="M0 0 C0.33 0.66 0.66 1.32 1 2 C1.66 2 2.32 2 3 2 C2.49396008 4.16874252 2.00016187 5.99967627 1 8 C-1.1796875 8.484375 -1.1796875 8.484375 -3.875 8.75 C-4.75929688 8.84796875 -5.64359375 8.9459375 -6.5546875 9.046875 C-9 9 -9 9 -12 7 C-4.375 5.875 -4.375 5.875 -1 7 C-1.020625 6.030625 -1.04125 5.06125 -1.0625 4.0625 C-1 1 -1 1 0 0 Z " fill="#040404" transform="translate(74,177)"/>
<path d="M0 0 C0.99 0 1.98 0 3 0 C4 6.75 4 6.75 4 9 C2.68 9 1.36 9 0 9 C0 6.03 0 3.06 0 0 Z " fill="#222122" transform="translate(141,172)"/>
<path d="M0 0 C2.64 0 5.28 0 8 0 C8 0.99 8 1.98 8 3 C6.865625 3.12375 5.73125 3.2475 4.5625 3.375 C2.7990625 3.684375 2.7990625 3.684375 1 4 C0.67 4.66 0.34 5.32 0 6 C-0.66 6 -1.32 6 -2 6 C-1.49396008 3.83125748 -1.00016187 2.00032373 0 0 Z " fill="#0D0D0E" transform="translate(123,172)"/>
<path d="M0 0 C3.99996286 1.33332095 4.83782337 3.4957827 7 7 C5.1875 7.625 5.1875 7.625 3 8 C0 6 0 6 -0.75 3.4375 C-0.8325 2.633125 -0.915 1.82875 -1 1 C-0.67 0.67 -0.34 0.34 0 0 Z " fill="#0E7BBD" transform="translate(72,77)"/>
<path d="M0 0 C4.875 0.875 4.875 0.875 6 2 C6.04063832 3.66617115 6.042721 5.33388095 6 7 C4.02 6.34 2.04 5.68 0 5 C0 3.35 0 1.7 0 0 Z " fill="#DDF0F7" transform="translate(134,61)"/>
<path d="M0 0 C0.66 0 1.32 0 2 0 C2.05423638 1.91635217 2.09289963 3.83314925 2.125 5.75 C2.14820312 6.81734375 2.17140625 7.8846875 2.1953125 8.984375 C2.00487687 11.92470106 1.52670104 13.52361878 0 16 C-0.19389096 13.5211787 -0.38040123 11.04219069 -0.5625 8.5625 C-0.61857422 7.85544922 -0.67464844 7.14839844 -0.73242188 6.41992188 C-0.86190993 4.61572163 -0.93521608 2.80768048 -1 1 C-0.67 0.67 -0.34 0.34 0 0 Z " fill="#0C0707" transform="translate(100,103)"/>
<path d="M0 0 C1.01832411 4.49759815 1.2903586 7.00949059 -1 11 C-1.09796875 10.37351563 -1.1959375 9.74703125 -1.296875 9.1015625 C-1.44640625 8.28429687 -1.5959375 7.46703125 -1.75 6.625 C-1.88921875 5.81289062 -2.0284375 5.00078125 -2.171875 4.1640625 C-2.81749261 1.82290908 -2.81749261 1.82290908 -5.078125 0.7109375 C-5.71234375 0.47632813 -6.3465625 0.24171875 -7 0 C-2.25 -1.125 -2.25 -1.125 0 0 Z " fill="#0D0D0D" transform="translate(81,168)"/>
<path d="M0 0 C0.33 0 0.66 0 1 0 C1.07347656 1.12148437 1.07347656 1.12148437 1.1484375 2.265625 C1.22320312 3.25046875 1.29796875 4.2353125 1.375 5.25 C1.44460937 6.22453125 1.51421875 7.1990625 1.5859375 8.203125 C1.98465249 10.89633189 2.63507063 12.66963279 4 15 C1.03 14.505 1.03 14.505 -2 14 C-1.34 13.67 -0.68 13.34 0 13 C0 8.71 0 4.42 0 0 Z " fill="#C3C2C3" transform="translate(64,169)"/>
<path d="M0 0 C1.485 0.99 1.485 0.99 3 2 C3.6875 5.625 3.6875 5.625 4 9 C2.68 8.67 1.36 8.34 0 8 C0 5.36 0 2.72 0 0 Z " fill="#0E0E0E" transform="translate(73,170)"/>
<path d="M0 0 C0.33 0.66 0.66 1.32 1 2 C1.66 2.33 2.32 2.66 3 3 C2.34 4.32 1.68 5.64 1 7 C-1.64 7 -4.28 7 -7 7 C-5 6 -3 5 -1 4 C-0.34786708 1.97536745 -0.34786708 1.97536745 0 0 Z " fill="#0C0B0C" transform="translate(58,165)"/>
<path d="M0 0 C0.33 0.99 0.66 1.98 1 3 C-1.64 3.33 -4.28 3.66 -7 4 C-7 3.01 -7 2.02 -7 1 C-4.53721199 -0.231394 -2.7204945 -0.07159196 0 0 Z " fill="#E0E0E2" transform="translate(131,169)"/>
<path d="M0 0 C0.66 0 1.32 0 2 0 C1.88490339 1.41750563 1.75746342 2.83401169 1.625 4.25 C1.55539063 5.03890625 1.48578125 5.8278125 1.4140625 6.640625 C0.98492887 9.085877 0.21399362 10.84836903 -1 13 C-1.02708567 11.39592672 -1.04643483 9.7917215 -1.0625 8.1875 C-1.07410156 7.29417969 -1.08570312 6.40085938 -1.09765625 5.48046875 C-1 3 -1 3 0 0 Z " fill="#D7D7D7" transform="translate(83,169)"/>
<path d="M0 0 C2.31 0.33 4.62 0.66 7 1 C6.67 1.99 6.34 2.98 6 4 C3.03 3.505 3.03 3.505 0 3 C0 2.01 0 1.02 0 0 Z " fill="#E6E5E4" transform="translate(138,180)"/>
<path d="M0 0 C0.99 0.33 1.98 0.66 3 1 C2.34 3.97 1.68 6.94 1 10 C-1.17766075 5.64467851 -1.03039555 4.53374042 0 0 Z " fill="#1C1D1D" transform="translate(88,169)"/>
<path d="M0 0 C0.66 0 1.32 0 2 0 C2 3.3 2 6.6 2 10 C1.34 9.67 0.68 9.34 0 9 C-0.99444068 5.65506316 -1.10348268 3.31044803 0 0 Z " fill="#0968B3" transform="translate(78,15)"/>
<path d="M0 0 C0.33 0 0.66 0 1 0 C1 2.97 1 5.94 1 9 C1.66 9.33 2.32 9.66 3 10 C1.02 10.99 1.02 10.99 -1 12 C-1.66 11.34 -2.32 10.68 -3 10 C-2.01 10 -1.02 10 0 10 C0 6.7 0 3.4 0 0 Z " fill="#28282A" transform="translate(58,173)"/>
<path d="M0 0 C1.15941038 3.47823115 0.70820884 5.45895578 0 9 C-1.32 9 -2.64 9 -4 9 C-4 8.01 -4 7.02 -4 6 C-3.34 6 -2.68 6 -2 6 C-1.34 4.02 -0.68 2.04 0 0 Z " fill="#F5F5F5" transform="translate(82,174)"/>
<path d="M0 0 C0.99 0.33 1.98 0.66 3 1 C3 3.31 3 5.62 3 8 C2.01 7.67 1.02 7.34 0 7 C0 4.69 0 2.38 0 0 Z " fill="#FCFCFC" transform="translate(138,173)"/>
<path d="M0 0 C-0.33 1.65 -0.66 3.3 -1 5 C-1.66 5 -2.32 5 -3 5 C-3 4.34 -3 3.68 -3 3 C-3.99 3 -4.98 3 -6 3 C-6 2.34 -6 1.68 -6 1 C-3.92446352 0.4465236 -2.15634036 0 0 0 Z " fill="#F4F5F4" transform="translate(134,174)"/>
<path d="M0 0 C1.98 0 3.96 0 6 0 C5.01 0.495 5.01 0.495 4 1 C3.34227572 4.02934491 3.34227572 4.02934491 3 7 C2.67 5.68 2.34 4.36 2 3 C1.34 3 0.68 3 0 3 C0 2.01 0 1.02 0 0 Z " fill="#E3E2E3" transform="translate(52,173)"/>
<path d="M0 0 C1.32 0.33 2.64 0.66 4 1 C3.67 2.65 3.34 4.3 3 6 C2.34 6 1.68 6 1 6 C0.67 4.02 0.34 2.04 0 0 Z " fill="#E7E7E7" transform="translate(75,169)"/>
<path d="M0 0 C2.09350689 3.4019487 2.17942163 6.05272412 2 10 C1.01 9.34 0.02 8.68 -1 8 C-0.67 5.36 -0.34 2.72 0 0 Z " fill="#070807" transform="translate(84,175)"/>
<path d="M0 0 C4 1 4 1 4 1 Z " fill="#0C4EB0" transform="translate(78,45)"/>
<path d="" fill="#000000" transform="translate(0,0)"/>
<path d="M0 0 C3 1 3 1 3 1 Z " fill="#001CE2" transform="translate(75,50)"/>
<path d="M0 0 C2 1 2 1 2 1 Z " fill="#000000" transform="translate(65,155)"/>
<path d="M0 0 C2 1 2 1 2 1 Z " fill="#003FBF" transform="translate(90,50)"/>
<path d="M0 0 C2 1 2 1 2 1 Z " fill="#0000FF" transform="translate(81,50)"/>
<path d="" fill="#006A94" transform="translate(0,0)"/>
<path d="" fill="#0000FF" transform="translate(0,0)"/>
<path d="" fill="#000000" transform="translate(0,0)"/>
<path d="" fill="#000000" transform="translate(0,0)"/>
<path d="" fill="#000000" transform="translate(0,0)"/>
<path d="" fill="#000000" transform="translate(0,0)"/>
<path d="" fill="#000000" transform="translate(0,0)"/>
<path d="" fill="#555555" transform="translate(0,0)"/>
<path d="" fill="#000000" transform="translate(0,0)"/>
<path d="" fill="#000000" transform="translate(0,0)"/>
<path d="" fill="#000000" transform="translate(0,0)"/>
<path d="" fill="#000000" transform="translate(0,0)"/>
<path d="" fill="#000000" transform="translate(0,0)"/>
<path d="" fill="#000000" transform="translate(0,0)"/>
<path d="" fill="#007F7F" transform="translate(0,0)"/>
<path d="" fill="#0000FF" transform="translate(0,0)"/>
<path d="" fill="#0000FF" transform="translate(0,0)"/>
<path d="" fill="#000000" transform="translate(0,0)"/>
<path d="" fill="#000000" transform="translate(0,0)"/>
<path d="" fill="#0000FF" transform="translate(0,0)"/>
<path d="" fill="#0000FF" transform="translate(0,0)"/>
<path d="" fill="#0055AA" transform="translate(0,0)"/>
<path d="" fill="#0000FF" transform="translate(0,0)"/>
<path d="" fill="#000000" transform="translate(0,0)"/>
<path d="" fill="#000000" transform="translate(0,0)"/>
</svg>
