<svg xmlns="http://www.w3.org/2000/svg" viewBox="0 0 1200 200" fill="currentColor" aria-hidden="true">
  <path opacity="0.15" d="M0 200V120L80 100 120 140 200 90 280 130 360 70 440 110 520 60 600 100 680 50 760 95 840 55 920 100 1000 65 1080 110 1160 80 1200 95V200H0Z"/>
  <path opacity="0.25" d="M0 200V150L60 135 100 165 180 125 260 155 340 115 420 145 500 105 580 140 660 100 740 135 820 95 900 130 980 105 1060 140 1140 120 1200 130V200H0Z"/>
  <rect opacity="0.35" x="520" y="40" width="160" height="90" rx="4"/>
  <polygon opacity="0.3" points="600,20 680,55 520,55"/>
</svg>
